<?xml version="1.0" encoding="utf-8"?>
<!-- Generator: Adobe Illustrator 24.2.3, SVG Export Plug-In . SVG Version: 6.00 Build 0)  -->
<svg version="1.1" id="Capa_1" xmlns="http://www.w3.org/2000/svg" xmlns:xlink="http://www.w3.org/1999/xlink" x="0px" y="0px"
	 viewBox="0 0 126 45" style="enable-background:new 0 0 126 45;" xml:space="preserve">
<style type="text/css">
	.st0{fill-rule:evenodd;clip-rule:evenodd;}
	.st1{fill:#06FFD8;}
	.st2{fill:#FFFFFF;}
</style>
<path class="st0" d="M11,1h104c5.5,0,10,4.5,10,10v23c0,5.5-4.5,10-10,10H11C5.5,44,1,39.5,1,34V11C1,5.5,5.5,1,11,1z"/>
<polygon class="st1" points="23.2,19.6 17.7,14.2 12.3,19.6 23.2,30.5 34,19.6 28.6,14.2 "/>
<polygon class="st1" points="50.4,14.2 39.5,14.2 34,19.6 34,19.6 34,19.6 39.5,25.1 34,30.5 39.5,30.5 39.5,30.5 45,30.5 
	50.4,25.1 45,19.6 "/>
<polygon class="st2" points="60.2,23.4 58.4,18.3 55.8,18.3 59.1,26.4 61.3,26.4 64.6,18.3 62.1,18.3 "/>
<polygon class="st2" points="69,23.2 73,23.2 73,21.4 69,21.4 69,20.2 73.4,20.2 73.4,18.3 66.8,18.3 66.8,26.4 73.4,26.4 
	73.4,24.5 69,24.5 "/>
<path class="st2" d="M90.4,21.3C89.3,21,89,20.9,89,20.5l0,0c0-0.3,0.3-0.5,0.8-0.5c0.8,0,1.6,0.3,2.3,0.8l1.1-1.6
	c-1-0.8-2.1-1.1-3.4-1.1c-2,0-3.2,1.1-3.2,2.6l0,0c0,1.7,1.3,2.2,3.1,2.6c1.1,0.3,1.4,0.4,1.4,0.8l0,0c0,0.4-0.3,0.6-0.9,0.6
	c-1,0-1.9-0.4-2.6-1l-1.3,1.5c1.1,0.9,2.4,1.4,3.8,1.3c2,0,3.3-1,3.3-2.7l0,0C93.4,22.4,92.3,21.7,90.4,21.3z"/>
<path class="st2" d="M101.2,22.9c0,1.1-0.6,1.7-1.5,1.7s-1.5-0.6-1.5-1.7v-4.5h-2.3V23c0,2.6,1.5,3.7,3.8,3.7s3.8-1.2,3.8-3.8v-4.5
	h-2.3V22.9z"/>
<path class="st2" d="M110,21.3c-1.1-0.3-1.4-0.4-1.4-0.8l0,0c0-0.3,0.3-0.5,0.8-0.5c0.8,0,1.6,0.3,2.3,0.8l1.1-1.6
	c-1-0.7-2.1-1.1-3.4-1.1c-2,0-3.2,1.1-3.2,2.6l0,0c0,1.7,1.3,2.2,3.1,2.6c1.1,0.3,1.4,0.4,1.4,0.8l0,0c0,0.4-0.3,0.6-0.9,0.6
	c-1,0-1.9-0.4-2.7-1l-1.3,1.5c1.1,0.9,2.4,1.4,3.8,1.3c2,0,3.3-1,3.3-2.7l0,0C113.1,22.4,111.9,21.7,110,21.3z"/>
<path class="st2" d="M82.3,23.5l0.2-0.1c0.3-0.3,0.5-0.6,0.7-0.9c0.2-0.4,0.3-0.8,0.3-1.3l0,0c0-0.4-0.1-0.8-0.2-1.2
	c-0.2-0.3-0.4-0.6-0.7-0.9c-0.3-0.3-0.7-0.4-1.1-0.6c-0.5-0.1-0.9-0.2-1.4-0.2h-3.5v8.1h2.3v-2.3h1.4c0.6,1.6,2.1,2.6,3.7,2.5v-2.2
	C83.2,24.5,82.6,24.1,82.3,23.5z M78.8,22.3v-2.2h1.1c0.3,0,0.7,0.1,1,0.3c0.2,0.2,0.4,0.5,0.3,0.8l0,0c0,0.3-0.1,0.6-0.3,0.8
	c-0.3,0.2-0.6,0.3-1,0.3L78.8,22.3z"/>
</svg>
